<svg width="16" height="16" viewBox="0 0 16 16" fill="none" xmlns="http://www.w3.org/2000/svg">
<g id="caret-down-filled">
<path id="Vector" d="M11.9993 6.5C11.9993 6.5 11.9994 6.5 11.9994 6.5C12.072 6.50002 12.1218 6.53591 12.1494 6.59468C12.1773 6.6538 12.1718 6.71329 12.1379 6.76048L12.1083 6.79327L8.11711 10.7844C8.11711 10.7844 8.1171 10.7844 8.1171 10.7844C8.0884 10.8131 8.05023 10.8304 8.00973 10.8329C7.97276 10.8352 7.93618 10.8252 7.9057 10.8045L7.87056 10.7735L3.89251 6.79542L3.86596 6.76535L3.86027 6.75724L3.84645 6.73267L3.84396 6.7265L3.8366 6.70166L3.83564 6.69654L3.83398 6.68662V6.64885L3.83412 6.64728L3.83626 6.633L3.83635 6.63252L3.8437 6.60773L3.86154 6.57409L3.86883 6.56399L3.88031 6.55126L3.90063 6.53331L3.90875 6.52762L3.93332 6.5138L3.93949 6.51131L3.96433 6.50395L3.96945 6.50299L3.97938 6.50133L11.9993 6.5Z" fill="#1C2024" stroke="#1C2024"/>
</g>
</svg>
